<?xml version="1.0" encoding="utf-8"?>
<!-- Generator: Adobe Illustrator 18.1.0, SVG Export Plug-In . SVG Version: 6.00 Build 0)  -->
<svg version="1.1" id="Layer_1" xmlns="http://www.w3.org/2000/svg" xmlns:xlink="http://www.w3.org/1999/xlink" x="0px" y="0px"
	 viewBox="0 0 70 46" enable-background="new 0 0 70 46" xml:space="preserve">
<g>
	<path fill="#34495E" d="M70,41.4c0,2.5-2.1,4.6-4.7,4.6H4.7C2.1,46,0,43.9,0,41.4V4.6C0,2.1,2.1,0,4.7,0h60.7C67.9,0,70,2.1,70,4.6
		V41.4z"/>
	<g>
		<ellipse fill="#E74C3C" cx="26.1" cy="22.9" rx="13.7" ry="13.5"/>
		<ellipse fill="#F1C40F" cx="44.4" cy="22.9" rx="13.7" ry="13.5"/>
		<path fill="#F39C12" d="M30.8,22.9c0,4,1.7,7.5,4.5,10c2.8-2.5,4.5-6,4.5-10s-1.7-7.5-4.5-10C32.5,15.4,30.8,19,30.8,22.9z"/>
	</g>
	<g>
		<path id="path4157_1_" fill="#FFFFFF" d="M29.5,27.5l0.2-1.6c-0.1,0-0.3,0.1-0.5,0.1c-0.7,0-0.8-0.4-0.7-0.6l0.5-3.3h1l0.2-1.8h-1
			l0.2-1.1h-1.9c0,0-1.1,6.3-1.1,7.1c0,1.1,0.6,1.6,1.6,1.6C28.7,27.7,29.3,27.5,29.5,27.5z"/>
		<path id="path4155_1_" fill="#FFFFFF" d="M30.1,24.4c0,2.7,1.8,3.4,3.4,3.4c1.4,0,2.1-0.3,2.1-0.3l0.3-1.9c0,0-1.1,0.5-2.1,0.5
			c-2.1,0-1.7-1.5-1.7-1.5h4c0,0,0.3-1.2,0.3-1.8c0-1.3-0.6-2.8-2.8-2.8C31.6,20,30.1,22,30.1,24.4z M33.5,21.7
			c1.1,0,0.9,1.2,0.9,1.3h-2.2C32.3,22.9,32.5,21.7,33.5,21.7z"/>
		<path id="path4151_1_" fill="#FFFFFF" d="M45.9,27.5l0.3-2.1c0,0-1,0.5-1.6,0.5c-1.4,0-1.9-1-1.9-2.2c0-2.3,1.2-3.5,2.5-3.5
			c1,0,1.8,0.5,1.8,0.5l0.3-2c0,0-1.2-0.5-2.2-0.5c-2.2,0-4.4,1.9-4.4,5.5c0,2.4,1.2,4,3.5,4C44.8,27.8,45.9,27.5,45.9,27.5z"/>
		<path id="path4149_3_" fill="#FFFFFF" d="M18.8,20c-1.3,0-2.4,0.4-2.4,0.4l-0.3,1.7c0,0,0.8-0.3,2.1-0.3c0.7,0,1.3,0.1,1.3,0.7
			c0,0.4-0.1,0.5-0.1,0.5s-0.6,0-0.8,0c-1.7,0-3.5,0.7-3.5,2.8c0,1.7,1.2,2.1,1.9,2.1c1.4,0,2-0.9,2-0.9L19,27.6h1.7l0.8-5.3
			C21.5,20.1,19.5,20,18.8,20z M19.2,24.3c0,0.3-0.2,1.8-1.4,1.8c-0.6,0-0.8-0.5-0.8-0.7c0-0.5,0.3-1.2,1.7-1.2
			C19.1,24.2,19.1,24.3,19.2,24.3z"/>
		<path id="path4145_1_" fill="#FFFFFF" d="M23.3,27.7c0.4,0,2.9,0.1,2.9-2.4c0-2.4-2.3-1.9-2.3-2.9c0-0.5,0.4-0.6,1.1-0.6
			c0.3,0,1.3,0.1,1.3,0.1l0.2-1.7c0,0-0.7-0.2-1.8-0.2c-1.4,0-2.9,0.6-2.9,2.5c0,2.2,2.4,2,2.4,2.9c0,0.6-0.7,0.7-1.2,0.7
			c-0.9,0-1.7-0.3-1.7-0.3l-0.3,1.7C21.1,27.5,21.6,27.7,23.3,27.7z"/>
		<path id="path4139_1_" fill="#FFFFFF" d="M62,18.5L61.6,21c0,0-0.7-1-1.9-1c-1.8,0-3.3,2.1-3.3,4.6c0,1.6,0.8,3.1,2.4,3.1
			c1.2,0,1.8-0.8,1.8-0.8l-0.1,0.7h1.9l1.5-9.1L62,18.5z M61.1,23.5c0,1-0.5,2.4-1.6,2.4c-0.7,0-1-0.6-1-1.5c0-1.5,0.7-2.5,1.5-2.5
			C60.7,21.9,61.1,22.4,61.1,23.5z"/>
		<path id="path4133_1_" fill="#FFFFFF" d="M8.2,27.6l1.2-6.9l0.2,6.9h1.3l2.5-6.9l-1.1,6.9h2l1.5-9.1h-3.1l-1.9,5.6l-0.1-5.6H7.9
			l-1.6,9.1H8.2z"/>
		<path id="path4131_3_" fill="#FFFFFF" d="M38.2,27.6c0.6-3.2,0.7-5.8,2-5.3c0.2-1.2,0.5-1.7,0.7-2.2c0,0-0.1,0-0.4,0
			c-0.9,0-1.5,1.2-1.5,1.2l0.2-1.1h-1.8l-1.2,7.4H38.2z"/>
		<g id="use8523_1_" transform="translate(847.0062,0)">
			<path id="path4149_2_" fill="#FFFFFF" d="M-796.7,20c-1.3,0-2.4,0.4-2.4,0.4l-0.3,1.7c0,0,0.8-0.3,2.1-0.3c0.7,0,1.3,0.1,1.3,0.7
				c0,0.4-0.1,0.5-0.1,0.5s-0.6,0-0.8,0c-1.7,0-3.5,0.7-3.5,2.8c0,1.7,1.2,2.1,1.9,2.1c1.4,0,2-0.9,2-0.9l-0.1,0.7c0,0,1.7,0,1.7,0
				l0.8-5.3C-794,20.1-796,20-796.7,20z M-796.2,24.3c0,0.3-0.2,1.8-1.4,1.8c-0.6,0-0.8-0.5-0.8-0.7c0-0.5,0.3-1.2,1.7-1.2
				C-796.3,24.2-796.3,24.3-796.2,24.3z"/>
		</g>
		<g id="use8525_1_" transform="translate(442.2857,0)">
			<path id="path4131_2_" fill="#FFFFFF" d="M-387.7,27.6c0.6-3.2,0.7-5.8,2-5.3c0.2-1.2,0.5-1.7,0.7-2.2c0,0-0.1,0-0.4,0
				c-0.9,0-1.5,1.2-1.5,1.2l0.2-1.1h-1.8l-1.2,7.4H-387.7z"/>
		</g>
	</g>
</g>
</svg>
